<svg width="24" height="28" viewBox="0 0 24 28" fill="none" xmlns="http://www.w3.org/2000/svg">
<path d="M15.7903 1.70209C16.0049 1.6235 16.1803 1.46435 16.2794 1.25845C16.3785 1.05256 16.3934 0.81614 16.3209 0.59944C16.2484 0.38274 16.0943 0.202834 15.8913 0.0979482C15.6883 -0.00693781 15.4525 -0.0285371 15.2338 0.0377396C13.587 0.5855 12.5617 1.93734 11.9578 3.38575C11.8766 3.58153 11.8023 3.78003 11.7348 3.98091C11.4059 3.3579 10.9851 2.78795 10.4865 2.29023C9.81172 1.61397 9.00571 1.08288 8.11806 0.729637C7.23041 0.37639 6.27989 0.208444 5.32494 0.236127C4.30842 0.264217 3.49381 1.07883 3.46572 2.09535C3.43803 3.0503 3.60598 4.00082 3.95923 4.88847C4.31247 5.77612 4.84356 6.58213 5.51982 7.25694L5.57424 7.30961C4.0995 7.62906 2.76678 8.4148 1.77331 9.55056C0.779836 10.6863 0.178405 12.1117 0.058017 13.6159L0.0474831 13.7458C-0.183758 16.6378 0.433052 19.5346 1.82244 22.0816L2.45271 23.235C2.47027 23.2666 2.48782 23.2965 2.50889 23.3263L4.26453 25.7842C4.6623 26.3416 5.17673 26.8056 5.77203 27.144C6.36732 27.4824 7.0292 27.687 7.71161 27.7437C8.39401 27.8003 9.08057 27.7076 9.72351 27.472C10.3665 27.2364 10.9503 26.8635 11.4346 26.3794C11.5089 26.305 11.5972 26.246 11.6943 26.2058C11.7915 26.1655 11.8956 26.1448 12.0008 26.1448C12.1059 26.1448 12.2101 26.1655 12.3072 26.2058C12.4044 26.246 12.4926 26.305 12.567 26.3794C13.0511 26.8636 13.6349 27.2366 14.2777 27.4724C14.9206 27.7081 15.6071 27.801 16.2895 27.7445C16.9719 27.688 17.6338 27.4836 18.2292 27.1453C18.8246 26.8071 19.3391 26.3432 19.737 25.786L21.4926 23.3263C21.5132 23.2971 21.532 23.2666 21.5488 23.235L22.1791 22.0816C23.5679 19.5344 24.1841 16.6377 23.9523 13.7458L23.9435 13.6159C23.8658 12.6464 23.5876 11.7036 23.1264 10.8473C22.6653 9.99093 22.0313 9.23972 21.2646 8.64124C20.498 8.04276 19.6154 7.61006 18.6727 7.37056C17.73 7.13106 16.7479 7.08997 15.7886 7.24991L12.8795 7.73447C12.897 6.53888 13.1077 5.1923 13.58 4.05991C14.0715 2.87486 14.8019 2.03215 15.7903 1.70209ZM6.5732 12.2359C6.30367 12.3212 6.05367 12.4589 5.83763 12.6412C5.62158 12.8235 5.44376 13.0467 5.31441 13.2981C4.98961 13.9091 4.76665 14.9168 4.97206 16.5601C4.9968 16.7889 4.9307 17.0182 4.78799 17.1988C4.64529 17.3793 4.43739 17.4966 4.20907 17.5254C3.98074 17.5542 3.75025 17.4921 3.56722 17.3526C3.38419 17.2131 3.26325 17.0073 3.23046 16.7795C2.99696 14.9115 3.2129 13.5053 3.76593 12.4712C4.32774 11.4178 5.18273 10.849 6.01842 10.5698C6.23936 10.4963 6.48047 10.5135 6.68872 10.6177C6.89697 10.7219 7.05529 10.9046 7.12886 11.1255C7.20243 11.3464 7.18522 11.5875 7.08101 11.7958C6.97681 12.004 6.79414 12.1624 6.5732 12.2359Z" fill="white"/>
</svg>
