<svg width="24" height="26" viewBox="0 0 24 26" fill="none" xmlns="http://www.w3.org/2000/svg">
<path d="M1.5 0.5C1.10218 0.5 0.720644 0.658035 0.43934 0.93934C0.158035 1.22064 0 1.60218 0 2C0 2.39782 0.158035 2.77936 0.43934 3.06066C0.720644 3.34196 1.10218 3.5 1.5 3.5H3.33L3.7875 5.333C3.79204 5.35411 3.79705 5.37511 3.8025 5.396L5.8395 13.541L4.5 14.879C2.61 16.769 3.948 20 6.621 20H19.5C19.8978 20 20.2794 19.842 20.5607 19.5607C20.842 19.2794 21 18.8978 21 18.5C21 18.1022 20.842 17.7206 20.5607 17.4393C20.2794 17.158 19.8978 17 19.5 17H6.621L8.121 15.5H18C18.2785 15.4999 18.5514 15.4222 18.7883 15.2757C19.0251 15.1292 19.2165 14.9196 19.341 14.6705L23.841 5.6705C23.9552 5.44187 24.0092 5.18784 23.9977 4.93251C23.9862 4.67718 23.9096 4.42903 23.7753 4.21159C23.641 3.99416 23.4533 3.81465 23.2301 3.69012C23.0069 3.56558 22.7556 3.50014 22.5 3.5H6.42L5.955 1.6355C5.87374 1.31113 5.68643 1.02321 5.42281 0.817483C5.15919 0.611753 4.83439 0.500009 4.5 0.5H1.5ZM21 23.75C21 24.3467 20.7629 24.919 20.341 25.341C19.919 25.7629 19.3467 26 18.75 26C18.1533 26 17.581 25.7629 17.159 25.341C16.7371 24.919 16.5 24.3467 16.5 23.75C16.5 23.1533 16.7371 22.581 17.159 22.159C17.581 21.7371 18.1533 21.5 18.75 21.5C19.3467 21.5 19.919 21.7371 20.341 22.159C20.7629 22.581 21 23.1533 21 23.75ZM6.75 26C7.34674 26 7.91903 25.7629 8.34099 25.341C8.76295 24.919 9 24.3467 9 23.75C9 23.1533 8.76295 22.581 8.34099 22.159C7.91903 21.7371 7.34674 21.5 6.75 21.5C6.15326 21.5 5.58097 21.7371 5.15901 22.159C4.73705 22.581 4.5 23.1533 4.5 23.75C4.5 24.3467 4.73705 24.919 5.15901 25.341C5.58097 25.7629 6.15326 26 6.75 26Z" fill="white"/>
</svg>
