<svg width="24" height="24" viewBox="0 0 24 24" fill="none" xmlns="http://www.w3.org/2000/svg">
<path fill-rule="evenodd" clip-rule="evenodd" d="M23.5605 10.9395C23.8417 11.2208 23.9997 11.6023 23.9997 12C23.9997 12.3977 23.8417 12.7792 23.5605 13.0605L13.0605 23.5605C12.7792 23.8417 12.3977 23.9997 12 23.9997C11.6023 23.9997 11.2208 23.8417 10.9395 23.5605L0.439501 13.0605C0.300004 12.9214 0.189366 12.7561 0.113942 12.5741C0.0385193 12.3921 -0.000202711 12.197 7.98025e-07 12V4.5C7.98025e-07 3.30653 0.474107 2.16193 1.31802 1.31802C2.16193 0.474106 3.30653 0 4.5 0H12C12.384 0 12.768 0.147 13.0605 0.4395L23.5605 10.9395ZM4.5 6C4.89783 6 5.27936 5.84196 5.56066 5.56066C5.84197 5.27936 6 4.89782 6 4.5C6 4.10218 5.84197 3.72064 5.56066 3.43934C5.27936 3.15804 4.89783 3 4.5 3C4.10218 3 3.72065 3.15804 3.43934 3.43934C3.15804 3.72064 3 4.10218 3 4.5C3 4.89782 3.15804 5.27936 3.43934 5.56066C3.72065 5.84196 4.10218 6 4.5 6Z" fill="white"/>
</svg>
